<svg xmlns="http://www.w3.org/2000/svg" viewBox="0 0 640 640"><path d="M80 48C62.3 48 48 62.3 48 80L48 560C48 577.7 62.3 592 80 592L240 592C257.7 592 272 577.7 272 560L272 80C272 62.3 257.7 48 240 48L80 48zM368 48C350.3 48 336 62.3 336 80L336 272C336 289.7 350.3 304 368 304L560 304C577.7 304 592 289.7 592 272L592 80C592 62.3 577.7 48 560 48L368 48zM336 368C336 350.3 350.3 336 368 336L560 336C577.7 336 592 350.3 592 368L592 560C592 577.7 577.7 592 560 592L368 592C350.3 592 336 577.7 336 560L336 368z"/></svg>